<svg xmlns="http://www.w3.org/2000/svg" viewBox="0 0 349.03 395.83"><defs><style>.cls-1{fill:#3aa935;}</style></defs><g id="Layer_2" data-name="Layer 2"><g id="Layer_1-2" data-name="Layer 1"><path class="cls-1" d="M18.56,395.83a27,27,0,0,1-7.82-3.16C3.8,388.15,0,381.79,0,373.47Q0,327.18,0,280.9v-1.44l4.53,2.21a202.93,202.93,0,0,0,49.55,16.17,238.44,238.44,0,0,0,34.83,4.09,236.21,236.21,0,0,0,31.7-.67c24.61-2.17,48.36-7.79,70.89-18.11a149,149,0,0,0,38.33-24.72,101,101,0,0,0,22-27.58,76.9,76.9,0,0,0,8.39-25.76c0-.32.06-.65.07-1a1.8,1.8,0,0,0-.06-.37c-2.1,2-4.12,4-6.19,5.88a184.32,184.32,0,0,1-41.46,28.9,214.8,214.8,0,0,1-59.07,19.81A246.91,246.91,0,0,1,117,262.45c-6.86.24-13.73.38-20.6.29a321.3,321.3,0,0,1-32.51-2.2A361.79,361.79,0,0,1,8.34,249.77c-2.52-.7-5-1.47-7.52-2.22-.24-.07-.47-.17-.76-.28V236.13a16.68,16.68,0,0,1,1.94.38,280.28,280.28,0,0,0,38.18,9.29c9.41,1.61,18.87,3,28.36,4.07,8.08.9,16.23,1.24,24.36,1.65,4.75.25,9.52.22,14.28.17a267.63,267.63,0,0,0,28.71-1.87,229.21,229.21,0,0,0,41.73-8.76,181.67,181.67,0,0,0,59.08-30.82,173.11,173.11,0,0,0,22.5-21.4,3.31,3.31,0,0,0-.35-5.13,168.76,168.76,0,0,0-31.44-21.29,217.89,217.89,0,0,0-54.9-19.6,280.09,280.09,0,0,0-31.4-5.08l-.75-.05c.19,2.22.4,4.38.54,6.54A28.37,28.37,0,0,1,141,149c-.29,2.82-2.74,4.65-5.72,4.53a5.4,5.4,0,0,1-5-5c-.27-3.55-.61-7.1-.86-10.65-.07-.93-.4-1.31-1.36-1.35-5.52-.21-11-.52-16.56-.71-3.08-.1-6.17,0-9.36,0,.17,2,.38,4,.51,6.08a29.37,29.37,0,0,1,.16,5.21,5.21,5.21,0,0,1-5.57,4.59,5.46,5.46,0,0,1-5.16-5.24c-.23-3.51-.52-7-.8-10.79l-28,1.59c.19,2.13.38,4,.53,5.93s.33,3.92.4,5.88a5.39,5.39,0,0,1-10.75.68c-.3-3.29-.56-6.59-.84-9.89,0-.43-.1-.85-.16-1.38a433.08,433.08,0,0,0-52.39,9V136.05c8.31-1.63,16.65-3.42,25-4.88s16.87-2.6,25.42-3.9A35,35,0,0,0,48,119.46a5.22,5.22,0,0,1,.77-6,5.39,5.39,0,0,1,8.93,1.19,50.73,50.73,0,0,1,3.77,11.51l27.88-1.73a35.74,35.74,0,0,0-2.56-7.9,5.26,5.26,0,0,1,.64-6,5.16,5.16,0,0,1,5.7-1.74,4.76,4.76,0,0,1,3.38,3Q98.36,117,100,122.3c.6,2,.48,2,2.63,2.06,7.52.22,15,.48,22.55.72.65,0,1.3,0,2.26,0-.86-2.29-1.56-4.5-2.49-6.61-1.48-3.33,0-6.91,3.43-7.84a5,5,0,0,1,6.07,2.65c1.31,3,2.27,6.11,3.32,9.2a17.45,17.45,0,0,1,.66,2.86c.1.61.36.82,1,.88a291.6,291.6,0,0,1,42.92,7.42c22.78,5.79,44.37,14.44,64.17,27.25,2.56,1.66,5.07,3.4,7.6,5.1l.23.12,0-.28a87.93,87.93,0,0,0-13.57-21.5c-11.15-13.23-24.8-23.3-40-31.39a196.85,196.85,0,0,0-53.43-18.82A234.53,234.53,0,0,0,111,89.66,244.12,244.12,0,0,0,73.42,90.8C49.8,93.37,27.09,99.22,5.56,109.38c-1.8.85-3.58,1.74-5.48,2.67,0-.32-.07-.59-.07-.85Q0,66.5,0,21.81C0,11.79,8,2.51,18.16.48a22.27,22.27,0,0,1,16,2.61L181.46,88.15l122,70.44q17,9.81,34,19.63c7.33,4.26,11.34,10.71,11.56,19.16.23,9-3.71,15.93-11.51,20.48-13.49,7.87-27,15.63-40.57,23.44L159.16,320.86q-62.39,36-124.79,72a56.86,56.86,0,0,1-7.29,3Z"/></g></g></svg>